<?xml version="1.0" standalone="no"?><svg xmlns:xlink="http://www.w3.org/1999/xlink" xmlns="http://www.w3.org/2000/svg" viewBox="0 0 1000 562.5025964853974" preserveAspectRatio="xMaxYMax slice"><g transform="scale(0.8308753271571601)"><rect x="0" y="0" width="1203.5555555555557" height="677" fill="#ffffff"/><g transform="translate(0,0) scale(3.761) rotate(0)"><path fill-rule="evenodd" clip-rule="evenodd" d="M10 20C15.5228 20 20 15.5228 20 10C20 4.47715 15.5228 0 10 0C4.47715 0 0 4.47715 0 10C0 15.5228 4.47715 20 10 20ZM10 17C13.866 17 17 13.866 17 10C17 6.13401 13.866 3 10 3C6.13401 3 3 6.13401 3 10C3 13.866 6.13401 17 10 17Z" fill="#8d94ff"/></g><g transform="translate(150.44,0) scale(3.761) rotate(0)"><rect width="2" height="20" fill="#29e477"/><rect x="4" width="2" height="20" fill="#29e477"/><rect x="8" width="2" height="20" fill="#29e477"/><rect x="12" width="2" height="20" fill="#29e477"/><rect x="16" width="2" height="20" fill="#29e477"/></g><g transform="translate(225.67,0) scale(3.761) rotate(0)"><rect width="2" height="20" fill="#a0f3c2"/><rect x="4" width="2" height="20" fill="#a0f3c2"/><rect x="8" width="2" height="20" fill="#a0f3c2"/><rect x="12" width="2" height="20" fill="#a0f3c2"/><rect x="16" width="2" height="20" fill="#a0f3c2"/></g><g transform="translate(300.89,0) scale(3.761) rotate(0)"><path fill-rule="evenodd" clip-rule="evenodd" d="M10 20C15.5228 20 20 15.5228 20 10C20 4.47715 15.5228 0 10 0C4.47715 0 0 4.47715 0 10C0 15.5228 4.47715 20 10 20ZM10 17C13.866 17 17 13.866 17 10C17 6.13401 13.866 3 10 3C6.13401 3 3 6.13401 3 10C3 13.866 6.13401 17 10 17Z" fill="#606aff"/></g><g transform="translate(376.11,0) scale(3.761) rotate(0)"><path d="M5 0H10L5 5L0 10V5L5 0Z" fill="#e4e6ff"/><path d="M20 15V20H15L20 15Z" fill="#e4e6ff"/><path d="M20 5V10L15 15L10 20H5L20 5Z" fill="#e4e6ff"/><path d="M15 0H20L5 15.0002L0 20.0002V15.0002L15 0Z" fill="#e4e6ff"/></g><g transform="translate(526.56,0) scale(3.761) rotate(0)"><rect width="2" height="20" fill="#8df1b7"/><rect x="4" width="2" height="20" fill="#8df1b7"/><rect x="8" width="2" height="20" fill="#8df1b7"/><rect x="12" width="2" height="20" fill="#8df1b7"/><rect x="16" width="2" height="20" fill="#8df1b7"/></g><g transform="translate(601.78,0) scale(3.761) rotate(0)"><rect width="2" height="20" fill="#8bf0b5"/><rect x="4" width="2" height="20" fill="#8bf0b5"/><rect x="8" width="2" height="20" fill="#8bf0b5"/><rect x="12" width="2" height="20" fill="#8bf0b5"/><rect x="16" width="2" height="20" fill="#8bf0b5"/></g><g transform="translate(677,0) scale(3.761) rotate(0)"><path fill-rule="evenodd" clip-rule="evenodd" d="M10 20C15.5228 20 20 15.5228 20 10C20 4.47715 15.5228 0 10 0C4.47715 0 0 4.47715 0 10C0 15.5228 4.47715 20 10 20ZM10 17C13.866 17 17 13.866 17 10C17 6.13401 13.866 3 10 3C6.13401 3 3 6.13401 3 10C3 13.866 6.13401 17 10 17Z" fill="#f0f1ff"/></g><path d="M 752.22 75.22 A 75.22 75.22 0 0 1  827.44 0 L 752.22 75.22 A 75.22 75.22 0 0 0 827.44 0" fill="#fafefc"/><circle cx="865.0500000000001" cy="37.61" r="37.61" fill="#737cff"/><g transform="translate(902.67,0) scale(3.761) rotate(0)"><rect width="2" height="20" fill="#88f0b4"/><rect x="4" width="2" height="20" fill="#88f0b4"/><rect x="8" width="2" height="20" fill="#88f0b4"/><rect x="12" width="2" height="20" fill="#88f0b4"/><rect x="16" width="2" height="20" fill="#88f0b4"/></g><path d="M 977.89 0 A 75.22 75.22 0 0 1  1053.11 75.22 L 977.89 0 A 75.22 75.22 0 0 0 1053.11 75.22" fill="#e7e9ff"/><g transform="translate(1053.11,0) scale(3.761) rotate(0)"><path fill-rule="evenodd" clip-rule="evenodd" d="M10 20C15.5228 20 20 15.5228 20 10C20 4.47715 15.5228 0 10 0C4.47715 0 0 4.47715 0 10C0 15.5228 4.47715 20 10 20ZM10 17C13.866 17 17 13.866 17 10C17 6.13401 13.866 3 10 3C6.13401 3 3 6.13401 3 10C3 13.866 6.13401 17 10 17Z" fill="#f2fdf7"/></g><circle cx="1165.9399999999998" cy="37.61" r="37.61" fill="#75eea7"/><g transform="translate(75.22,75.22) scale(3.761) rotate(0)"><path d="M13 0H20V7L7 20H0V13L13 0Z" fill="#e1fbec"/></g><g transform="translate(150.44,75.22) scale(3.761) rotate(0)"><rect width="2" height="20" fill="#616bff"/><rect x="4" width="2" height="20" fill="#616bff"/><rect x="8" width="2" height="20" fill="#616bff"/><rect x="12" width="2" height="20" fill="#616bff"/><rect x="16" width="2" height="20" fill="#616bff"/></g><g transform="translate(300.89,75.22) scale(3.761) rotate(0)"><path fill-rule="evenodd" clip-rule="evenodd" d="M10 20C15.5228 20 20 15.5228 20 10C20 4.47715 15.5228 0 10 0C4.47715 0 0 4.47715 0 10C0 15.5228 4.47715 20 10 20ZM10 17C13.866 17 17 13.866 17 10C17 6.13401 13.866 3 10 3C6.13401 3 3 6.13401 3 10C3 13.866 6.13401 17 10 17Z" fill="#aef5cc"/></g><g transform="translate(451.33,75.22) scale(3.761) rotate(0)"><path fill-rule="evenodd" clip-rule="evenodd" d="M10 20C15.5228 20 20 15.5228 20 10C20 4.47715 15.5228 0 10 0C4.47715 0 0 4.47715 0 10C0 15.5228 4.47715 20 10 20ZM10 17C13.866 17 17 13.866 17 10C17 6.13401 13.866 3 10 3C6.13401 3 3 6.13401 3 10C3 13.866 6.13401 17 10 17Z" fill="#9ea4ff"/></g><g transform="translate(526.56,75.22) scale(3.761) rotate(0)"><rect width="2" height="20" fill="#6771ff"/><rect x="4" width="2" height="20" fill="#6771ff"/><rect x="8" width="2" height="20" fill="#6771ff"/><rect x="12" width="2" height="20" fill="#6771ff"/><rect x="16" width="2" height="20" fill="#6771ff"/></g><path d="M 601.78 150.44 A 75.22 75.22 0 0 1  677 75.22 L 601.78 150.44 A 75.22 75.22 0 0 0 677 75.22" fill="#4ce98d"/><g transform="translate(752.22,75.22) scale(3.761) rotate(0)"><path d="M13 0H20V7L7 20H0V13L13 0Z" fill="#8d94ff"/></g><path d="M 827.44 150.44 A 75.22 75.22 0 0 1  902.6600000000001 75.22 L 827.44 150.44 A 75.22 75.22 0 0 0 902.6600000000001 75.22" fill="#97f2bd"/><path d="M 902.67 75.22 A 75.22 75.22 0 0 1  977.89 150.44 L 902.67 75.22 A 75.22 75.22 0 0 0 977.89 150.44" fill="#e4fcee"/><g transform="translate(977.89,75.22) scale(3.761) rotate(0)"><path d="M10 0L20 10L10 20L0 10L10 0Z" fill="#fdfffe"/></g><g transform="translate(1053.11,75.22) scale(3.761) rotate(0)"><rect width="2" height="20" fill="#959cff"/><rect x="4" width="2" height="20" fill="#959cff"/><rect x="8" width="2" height="20" fill="#959cff"/><rect x="12" width="2" height="20" fill="#959cff"/><rect x="16" width="2" height="20" fill="#959cff"/></g><g transform="translate(1128.33,75.22) scale(3.761) rotate(0)"><path d="M10 0L20 10L10 20L0 10L10 0Z" fill="#effdf5"/></g><g transform="translate(0,150.44) scale(3.761) rotate(0)"><path d="M5 0H10L5 5L0 10V5L5 0Z" fill="#646dff"/><path d="M20 15V20H15L20 15Z" fill="#646dff"/><path d="M20 5V10L15 15L10 20H5L20 5Z" fill="#646dff"/><path d="M15 0H20L5 15.0002L0 20.0002V15.0002L15 0Z" fill="#646dff"/></g><g transform="translate(300.89,150.44) scale(3.761) rotate(0)"><path d="M10 0L20 10L10 20L0 10L10 0Z" fill="#c3c6ff"/></g><path d="M 376.11 225.66 A 75.22 75.22 0 0 1  451.33000000000004 150.44 L 376.11 225.66 A 75.22 75.22 0 0 0 451.33000000000004 150.44" fill="#adf5cb"/><g transform="translate(451.33,150.44) scale(3.761) rotate(0)"><path d="M13 0H20V7L7 20H0V13L13 0Z" fill="#68ec9f"/></g><g transform="translate(526.56,150.44) scale(3.761) rotate(0)"><path fill-rule="evenodd" clip-rule="evenodd" d="M10 20C15.5228 20 20 15.5228 20 10C20 4.47715 15.5228 0 10 0C4.47715 0 0 4.47715 0 10C0 15.5228 4.47715 20 10 20ZM10 17C13.866 17 17 13.866 17 10C17 6.13401 13.866 3 10 3C6.13401 3 3 6.13401 3 10C3 13.866 6.13401 17 10 17Z" fill="#7d85ff"/></g><circle cx="639.39" cy="188.05" r="37.61" fill="#a9f4c8"/><circle cx="714.61" cy="188.05" r="37.61" fill="#6a74ff"/><g transform="translate(752.22,150.44) scale(3.761) rotate(0)"><rect width="2" height="20" fill="#f8f8ff"/><rect x="4" width="2" height="20" fill="#f8f8ff"/><rect x="8" width="2" height="20" fill="#f8f8ff"/><rect x="12" width="2" height="20" fill="#f8f8ff"/><rect x="16" width="2" height="20" fill="#f8f8ff"/></g><path d="M 977.89 225.66 A 75.22 75.22 0 0 1  1053.11 150.44 L 977.89 225.66 A 75.22 75.22 0 0 0 1053.11 150.44" fill="#3ce783"/><g transform="translate(1128.33,150.44) scale(3.761) rotate(0)"><path d="M13 0H20V7L7 20H0V13L13 0Z" fill="#75eea7"/></g><g transform="translate(0,225.67) scale(3.761) rotate(0)"><path d="M5 0H10L5 5L0 10V5L5 0Z" fill="#dddfff"/><path d="M20 15V20H15L20 15Z" fill="#dddfff"/><path d="M20 5V10L15 15L10 20H5L20 5Z" fill="#dddfff"/><path d="M15 0H20L5 15.0002L0 20.0002V15.0002L15 0Z" fill="#dddfff"/></g><circle cx="188.05" cy="263.28" r="37.61" fill="#49e88b"/><g transform="translate(300.89,225.67) scale(3.761) rotate(0)"><path d="M13 0H20V7L7 20H0V13L13 0Z" fill="#5963ff"/></g><g transform="translate(376.11,225.67) scale(3.761) rotate(0)"><rect width="2" height="20" fill="#525dff"/><rect x="4" width="2" height="20" fill="#525dff"/><rect x="8" width="2" height="20" fill="#525dff"/><rect x="12" width="2" height="20" fill="#525dff"/><rect x="16" width="2" height="20" fill="#525dff"/></g><g transform="translate(451.33,225.67) scale(3.761) rotate(0)"><path d="M13 0H20V7L7 20H0V13L13 0Z" fill="#a9f4c8"/></g><path d="M 601.78 225.67 A 75.22 75.22 0 0 1  677 300.89 L 601.78 225.67 A 75.22 75.22 0 0 0 677 300.89" fill="#19e26d"/><path d="M 677 225.67 A 75.22 75.22 0 0 1  752.22 300.89 L 677 225.67 A 75.22 75.22 0 0 0 752.22 300.89" fill="#8c93ff"/><path d="M 827.44 225.67 A 75.22 75.22 0 0 1  902.6600000000001 300.89 L 827.44 225.67 A 75.22 75.22 0 0 0 902.6600000000001 300.89" fill="#90f1b9"/><g transform="translate(1053.11,225.67) scale(3.761) rotate(0)"><path fill-rule="evenodd" clip-rule="evenodd" d="M10 20C15.5228 20 20 15.5228 20 10C20 4.47715 15.5228 0 10 0C4.47715 0 0 4.47715 0 10C0 15.5228 4.47715 20 10 20ZM10 17C13.866 17 17 13.866 17 10C17 6.13401 13.866 3 10 3C6.13401 3 3 6.13401 3 10C3 13.866 6.13401 17 10 17Z" fill="#8189ff"/></g><g transform="translate(1128.33,225.67) scale(3.761) rotate(0)"><path fill-rule="evenodd" clip-rule="evenodd" d="M10 20C15.5228 20 20 15.5228 20 10C20 4.47715 15.5228 0 10 0C4.47715 0 0 4.47715 0 10C0 15.5228 4.47715 20 10 20ZM10 17C13.866 17 17 13.866 17 10C17 6.13401 13.866 3 10 3C6.13401 3 3 6.13401 3 10C3 13.866 6.13401 17 10 17Z" fill="#caf8dd"/></g><g transform="translate(0,300.89) scale(3.761) rotate(0)"><path d="M5 0H10L5 5L0 10V5L5 0Z" fill="#727bff"/><path d="M20 15V20H15L20 15Z" fill="#727bff"/><path d="M20 5V10L15 15L10 20H5L20 5Z" fill="#727bff"/><path d="M15 0H20L5 15.0002L0 20.0002V15.0002L15 0Z" fill="#727bff"/></g><g transform="translate(75.22,300.89) scale(3.761) rotate(0)"><rect width="2" height="20" fill="#59ea95"/><rect x="4" width="2" height="20" fill="#59ea95"/><rect x="8" width="2" height="20" fill="#59ea95"/><rect x="12" width="2" height="20" fill="#59ea95"/><rect x="16" width="2" height="20" fill="#59ea95"/></g><g transform="translate(150.44,300.89) scale(3.761) rotate(0)"><path fill-rule="evenodd" clip-rule="evenodd" d="M10 20C15.5228 20 20 15.5228 20 10C20 4.47715 15.5228 0 10 0C4.47715 0 0 4.47715 0 10C0 15.5228 4.47715 20 10 20ZM10 17C13.866 17 17 13.866 17 10C17 6.13401 13.866 3 10 3C6.13401 3 3 6.13401 3 10C3 13.866 6.13401 17 10 17Z" fill="#5e68ff"/></g><g transform="translate(300.89,300.89) scale(3.761) rotate(0)"><path d="M5 0H10L5 5L0 10V5L5 0Z" fill="#9399ff"/><path d="M20 15V20H15L20 15Z" fill="#9399ff"/><path d="M20 5V10L15 15L10 20H5L20 5Z" fill="#9399ff"/><path d="M15 0H20L5 15.0002L0 20.0002V15.0002L15 0Z" fill="#9399ff"/></g><g transform="translate(451.33,300.89) scale(3.761) rotate(0)"><path fill-rule="evenodd" clip-rule="evenodd" d="M10 20C15.5228 20 20 15.5228 20 10C20 4.47715 15.5228 0 10 0C4.47715 0 0 4.47715 0 10C0 15.5228 4.47715 20 10 20ZM10 17C13.866 17 17 13.866 17 10C17 6.13401 13.866 3 10 3C6.13401 3 3 6.13401 3 10C3 13.866 6.13401 17 10 17Z" fill="#e3fbed"/></g><path d="M 526.56 376.11 A 75.22 75.22 0 0 1  601.78 300.89 L 526.56 376.11 A 75.22 75.22 0 0 0 601.78 300.89" fill="#8af0b5"/><g transform="translate(601.78,300.89) scale(3.761) rotate(0)"><path d="M10 0L20 10L10 20L0 10L10 0Z" fill="#838bff"/></g><g transform="translate(677,300.89) scale(3.761) rotate(0)"><path d="M5 0H10L5 5L0 10V5L5 0Z" fill="#d6fae5"/><path d="M20 15V20H15L20 15Z" fill="#d6fae5"/><path d="M20 5V10L15 15L10 20H5L20 5Z" fill="#d6fae5"/><path d="M15 0H20L5 15.0002L0 20.0002V15.0002L15 0Z" fill="#d6fae5"/></g><g transform="translate(752.22,300.89) scale(3.761) rotate(0)"><path fill-rule="evenodd" clip-rule="evenodd" d="M10 20C15.5228 20 20 15.5228 20 10C20 4.47715 15.5228 0 10 0C4.47715 0 0 4.47715 0 10C0 15.5228 4.47715 20 10 20ZM10 17C13.866 17 17 13.866 17 10C17 6.13401 13.866 3 10 3C6.13401 3 3 6.13401 3 10C3 13.866 6.13401 17 10 17Z" fill="#52e991"/></g><g transform="translate(902.67,300.89) scale(3.761) rotate(0)"><path d="M13 0H20V7L7 20H0V13L13 0Z" fill="#8990ff"/></g><g transform="translate(1053.11,300.89) scale(3.761) rotate(0)"><path d="M10 0L20 10L10 20L0 10L10 0Z" fill="#5c66ff"/></g><g transform="translate(1128.33,300.89) scale(3.761) rotate(0)"><rect width="2" height="20" fill="#cbceff"/><rect x="4" width="2" height="20" fill="#cbceff"/><rect x="8" width="2" height="20" fill="#cbceff"/><rect x="12" width="2" height="20" fill="#cbceff"/><rect x="16" width="2" height="20" fill="#cbceff"/></g><g transform="translate(0,376.11) scale(3.761) rotate(0)"><path d="M10 0L20 10L10 20L0 10L10 0Z" fill="#c8f8dc"/></g><circle cx="112.83" cy="413.72" r="37.61" fill="#26e475"/><circle cx="188.05" cy="413.72" r="37.61" fill="#70eda4"/><circle cx="338.5" cy="413.72" r="37.61" fill="#e1e3ff"/><path d="M 376.11 376.11 A 75.22 75.22 0 0 1  451.33000000000004 451.33000000000004 L 376.11 376.11 A 75.22 75.22 0 0 0 451.33000000000004 451.33000000000004" fill="#757eff"/><g transform="translate(451.33,376.11) scale(3.761) rotate(0)"><path d="M10 0L20 10L10 20L0 10L10 0Z" fill="#7c84ff"/></g><g transform="translate(526.56,376.11) scale(3.761) rotate(0)"><path d="M10 0L20 10L10 20L0 10L10 0Z" fill="#b9f6d2"/></g><path d="M 601.78 376.11 A 75.22 75.22 0 0 1  677 451.33000000000004 L 601.78 376.11 A 75.22 75.22 0 0 0 677 451.33000000000004" fill="#b4f6cf"/><circle cx="714.61" cy="413.72" r="37.61" fill="#58ea94"/><circle cx="1090.7199999999998" cy="413.72" r="37.61" fill="#e2fbec"/><circle cx="112.83" cy="488.94" r="37.61" fill="#ccf9df"/><g transform="translate(150.44,451.33) scale(3.761) rotate(0)"><rect width="2" height="20" fill="#878eff"/><rect x="4" width="2" height="20" fill="#878eff"/><rect x="8" width="2" height="20" fill="#878eff"/><rect x="12" width="2" height="20" fill="#878eff"/><rect x="16" width="2" height="20" fill="#878eff"/></g><g transform="translate(300.89,451.33) scale(3.761) rotate(0)"><path d="M10 0L20 10L10 20L0 10L10 0Z" fill="#cbceff"/></g><path d="M 601.78 451.33 A 75.22 75.22 0 0 1  677 526.55 L 601.78 451.33 A 75.22 75.22 0 0 0 677 526.55" fill="#b9bdff"/><circle cx="714.61" cy="488.94" r="37.61" fill="#a4f4c5"/><path d="M 752.22 451.33 A 75.22 75.22 0 0 1  827.44 526.55 L 752.22 451.33 A 75.22 75.22 0 0 0 827.44 526.55" fill="#f0f1ff"/><g transform="translate(827.44,451.33) scale(3.761) rotate(0)"><path d="M10 0L20 10L10 20L0 10L10 0Z" fill="#a1f3c3"/></g><path d="M 902.67 451.33 A 75.22 75.22 0 0 1  977.89 526.55 L 902.67 451.33 A 75.22 75.22 0 0 0 977.89 526.55" fill="#5560ff"/><g transform="translate(977.89,451.33) scale(3.761) rotate(0)"><path d="M13 0H20V7L7 20H0V13L13 0Z" fill="#c7caff"/></g><path d="M 1128.33 526.55 A 75.22 75.22 0 0 1  1203.55 451.33 L 1128.33 526.55 A 75.22 75.22 0 0 0 1203.55 451.33" fill="#c6f8db"/><g transform="translate(0,526.56) scale(3.761) rotate(0)"><rect width="2" height="20" fill="#85f0b1"/><rect x="4" width="2" height="20" fill="#85f0b1"/><rect x="8" width="2" height="20" fill="#85f0b1"/><rect x="12" width="2" height="20" fill="#85f0b1"/><rect x="16" width="2" height="20" fill="#85f0b1"/></g><g transform="translate(75.22,526.56) scale(3.761) rotate(0)"><rect width="2" height="20" fill="#8088ff"/><rect x="4" width="2" height="20" fill="#8088ff"/><rect x="8" width="2" height="20" fill="#8088ff"/><rect x="12" width="2" height="20" fill="#8088ff"/><rect x="16" width="2" height="20" fill="#8088ff"/></g><g transform="translate(150.44,526.56) scale(3.761) rotate(0)"><path d="M10 0L20 10L10 20L0 10L10 0Z" fill="#50e98f"/></g><g transform="translate(225.67,526.56) scale(3.761) rotate(0)"><rect width="2" height="20" fill="#f3f4ff"/><rect x="4" width="2" height="20" fill="#f3f4ff"/><rect x="8" width="2" height="20" fill="#f3f4ff"/><rect x="12" width="2" height="20" fill="#f3f4ff"/><rect x="16" width="2" height="20" fill="#f3f4ff"/></g><g transform="translate(300.89,526.56) scale(3.761) rotate(0)"><path d="M5 0H10L5 5L0 10V5L5 0Z" fill="#9299ff"/><path d="M20 15V20H15L20 15Z" fill="#9299ff"/><path d="M20 5V10L15 15L10 20H5L20 5Z" fill="#9299ff"/><path d="M15 0H20L5 15.0002L0 20.0002V15.0002L15 0Z" fill="#9299ff"/></g><g transform="translate(451.33,526.56) scale(3.761) rotate(0)"><path fill-rule="evenodd" clip-rule="evenodd" d="M10 20C15.5228 20 20 15.5228 20 10C20 4.47715 15.5228 0 10 0C4.47715 0 0 4.47715 0 10C0 15.5228 4.47715 20 10 20ZM10 17C13.866 17 17 13.866 17 10C17 6.13401 13.866 3 10 3C6.13401 3 3 6.13401 3 10C3 13.866 6.13401 17 10 17Z" fill="#7a83ff"/></g><g transform="translate(526.56,526.56) scale(3.761) rotate(0)"><path fill-rule="evenodd" clip-rule="evenodd" d="M10 20C15.5228 20 20 15.5228 20 10C20 4.47715 15.5228 0 10 0C4.47715 0 0 4.47715 0 10C0 15.5228 4.47715 20 10 20ZM10 17C13.866 17 17 13.866 17 10C17 6.13401 13.866 3 10 3C6.13401 3 3 6.13401 3 10C3 13.866 6.13401 17 10 17Z" fill="#d5d7ff"/></g><g transform="translate(601.78,526.56) scale(3.761) rotate(0)"><rect width="2" height="20" fill="#e6e8ff"/><rect x="4" width="2" height="20" fill="#e6e8ff"/><rect x="8" width="2" height="20" fill="#e6e8ff"/><rect x="12" width="2" height="20" fill="#e6e8ff"/><rect x="16" width="2" height="20" fill="#e6e8ff"/></g><g transform="translate(752.22,526.56) scale(3.761) rotate(0)"><path d="M5 0H10L5 5L0 10V5L5 0Z" fill="#7eefad"/><path d="M20 15V20H15L20 15Z" fill="#7eefad"/><path d="M20 5V10L15 15L10 20H5L20 5Z" fill="#7eefad"/><path d="M15 0H20L5 15.0002L0 20.0002V15.0002L15 0Z" fill="#7eefad"/></g><g transform="translate(1053.11,526.56) scale(3.761) rotate(0)"><path d="M13 0H20V7L7 20H0V13L13 0Z" fill="#9ba1ff"/></g><g transform="translate(150.44,601.78) scale(3.761) rotate(0)"><rect width="2" height="20" fill="#c5f8da"/><rect x="4" width="2" height="20" fill="#c5f8da"/><rect x="8" width="2" height="20" fill="#c5f8da"/><rect x="12" width="2" height="20" fill="#c5f8da"/><rect x="16" width="2" height="20" fill="#c5f8da"/></g><g transform="translate(225.67,601.78) scale(3.761) rotate(0)"><path d="M13 0H20V7L7 20H0V13L13 0Z" fill="#4f59ff"/></g><path d="M 300.89 677 A 75.22 75.22 0 0 1  376.11 601.78 L 300.89 677 A 75.22 75.22 0 0 0 376.11 601.78" fill="#b6f6d1"/><g transform="translate(376.11,601.78) scale(3.761) rotate(0)"><path d="M5 0H10L5 5L0 10V5L5 0Z" fill="#c1c5ff"/><path d="M20 15V20H15L20 15Z" fill="#c1c5ff"/><path d="M20 5V10L15 15L10 20H5L20 5Z" fill="#c1c5ff"/><path d="M15 0H20L5 15.0002L0 20.0002V15.0002L15 0Z" fill="#c1c5ff"/></g><circle cx="639.39" cy="639.39" r="37.61" fill="#e2e4ff"/><g transform="translate(752.22,601.78) scale(3.761) rotate(0)"><path d="M5 0H10L5 5L0 10V5L5 0Z" fill="#e7e9ff"/><path d="M20 15V20H15L20 15Z" fill="#e7e9ff"/><path d="M20 5V10L15 15L10 20H5L20 5Z" fill="#e7e9ff"/><path d="M15 0H20L5 15.0002L0 20.0002V15.0002L15 0Z" fill="#e7e9ff"/></g><g transform="translate(827.44,601.78) scale(3.761) rotate(0)"><path d="M10 0L20 10L10 20L0 10L10 0Z" fill="#d7d9ff"/></g><circle cx="940.28" cy="639.39" r="37.61" fill="#95f2bc"/><g transform="translate(1053.11,601.78) scale(3.761) rotate(0)"><path d="M13 0H20V7L7 20H0V13L13 0Z" fill="#4ee98f"/></g><g transform="translate(1128.33,601.78) scale(3.761) rotate(0)"><path d="M10 0L20 10L10 20L0 10L10 0Z" fill="#c7cbff"/></g></g></svg>