<?xml version="1.0" standalone="no"?><svg xmlns:xlink="http://www.w3.org/1999/xlink" xmlns="http://www.w3.org/2000/svg" viewBox="0 0 1000 562.5025964853974" preserveAspectRatio="xMaxYMax slice"><g transform="scale(0.8308753271571601)"><rect x="0" y="0" width="1203.5555555555557" height="677" fill="#ffffff"/><rect x="0" y="0" width="75.22222222222223" height="75.22222222222223" fill="#ffffff"/><circle cx="18.805" cy="18.805" r="18.805" fill="#9af2c3"/><g transform="translate(37.61,0) scale(1.8805) rotate(0)"><rect width="2" height="20" fill="#8088ff"/><rect x="4" width="2" height="20" fill="#8088ff"/><rect x="8" width="2" height="20" fill="#8088ff"/><rect x="12" width="2" height="20" fill="#8088ff"/><rect x="16" width="2" height="20" fill="#8088ff"/></g><rect x="677" y="0" width="75.22222222222223" height="75.22222222222223" fill="#ffffff"/><g transform="translate(714.61,0) scale(1.8805) rotate(0)"><path d="M13 0H20V7L7 20H0V13L13 0Z" fill="#a5f4ca"/></g><g transform="translate(677,37.61) scale(1.8805) rotate(0)"><path d="M13 0H20V7L7 20H0V13L13 0Z" fill="#33e586"/></g><g transform="translate(714.61,37.61) scale(1.8805) rotate(0)"><path fill-rule="evenodd" clip-rule="evenodd" d="M10 20C15.5228 20 20 15.5228 20 10C20 4.47715 15.5228 0 10 0C4.47715 0 0 4.47715 0 10C0 15.5228 4.47715 20 10 20ZM10 17C13.866 17 17 13.866 17 10C17 6.13401 13.866 3 10 3C6.13401 3 3 6.13401 3 10C3 13.866 6.13401 17 10 17Z" fill="#ecfdf4"/></g><rect x="827.4444444444446" y="0" width="75.22222222222223" height="75.22222222222223" fill="#ffffff"/><g transform="translate(827.44,37.61) scale(1.8805) rotate(0)"><path d="M13 0H20V7L7 20H0V13L13 0Z" fill="#f6fefa"/></g><path d="M 1053.11 0 A 75.22 75.22 0 0 1  1128.33 75.22 L 1053.11 0 A 75.22 75.22 0 0 0 1128.33 75.22" fill="#e7fcf1"/><rect x="300.8888888888889" y="75.22222222222223" width="75.22222222222223" height="75.22222222222223" fill="#ffffff"/><g transform="translate(338.5,112.83) scale(1.8805) rotate(0)"><rect width="2" height="20" fill="#d6fae7"/><rect x="4" width="2" height="20" fill="#d6fae7"/><rect x="8" width="2" height="20" fill="#d6fae7"/><rect x="12" width="2" height="20" fill="#d6fae7"/><rect x="16" width="2" height="20" fill="#d6fae7"/></g><path d="M 526.56 150.44 A 75.22 75.22 0 0 1  601.78 75.22 L 526.56 150.44 A 75.22 75.22 0 0 0 601.78 75.22" fill="#dcfbea"/><rect x="601.7777777777778" y="75.22222222222223" width="75.22222222222223" height="75.22222222222223" fill="#ffffff"/><g transform="translate(639.39,112.83) scale(1.8805) rotate(0)"><path d="M13 0H20V7L7 20H0V13L13 0Z" fill="#e5e7ff"/></g><rect x="752.2222222222223" y="75.22222222222223" width="75.22222222222223" height="75.22222222222223" fill="#ffffff"/><circle cx="771.025" cy="94.025" r="18.805" fill="#d4fae6"/><g transform="translate(789.83,75.22) scale(1.8805) rotate(0)"><path fill-rule="evenodd" clip-rule="evenodd" d="M10 20C15.5228 20 20 15.5228 20 10C20 4.47715 15.5228 0 10 0C4.47715 0 0 4.47715 0 10C0 15.5228 4.47715 20 10 20ZM10 17C13.866 17 17 13.866 17 10C17 6.13401 13.866 3 10 3C6.13401 3 3 6.13401 3 10C3 13.866 6.13401 17 10 17Z" fill="#a6acff"/></g><path d="M 789.83 150.44 A 37.61 37.61 0 0 1  827.44 112.83 L 789.83 150.44 A 37.61 37.61 0 0 0 827.44 112.83" fill="#85f0b7"/><circle cx="940.28" cy="112.83" r="37.61" fill="#2ae481"/><rect x="977.8888888888889" y="75.22222222222223" width="75.22222222222223" height="75.22222222222223" fill="#ffffff"/><rect x="1053.1111111111113" y="75.22222222222223" width="75.22222222222223" height="75.22222222222223" fill="#ffffff"/><path d="M 1090.72 112.83 A 37.61 37.61 0 0 1  1128.33 150.44 L 1090.72 112.83 A 37.61 37.61 0 0 0 1128.33 150.44" fill="#d7fae7"/><path d="M 150.44 150.44 A 75.22 75.22 0 0 1  225.66 225.66 L 150.44 150.44 A 75.22 75.22 0 0 0 225.66 225.66" fill="#acb2ff"/><rect x="225.66666666666669" y="150.44444444444446" width="75.22222222222223" height="75.22222222222223" fill="#ffffff"/><g transform="translate(225.67,150.44) scale(1.8805) rotate(0)"><rect width="2" height="20" fill="#bbbfff"/><rect x="4" width="2" height="20" fill="#bbbfff"/><rect x="8" width="2" height="20" fill="#bbbfff"/><rect x="12" width="2" height="20" fill="#bbbfff"/><rect x="16" width="2" height="20" fill="#bbbfff"/></g><circle cx="282.085" cy="169.245" r="18.805" fill="#38e689"/><g transform="translate(376.11,150.44) scale(3.761) rotate(0)"><rect width="2" height="20" fill="#646eff"/><rect x="4" width="2" height="20" fill="#646eff"/><rect x="8" width="2" height="20" fill="#646eff"/><rect x="12" width="2" height="20" fill="#646eff"/><rect x="16" width="2" height="20" fill="#646eff"/></g><g transform="translate(451.33,150.44) scale(3.761) rotate(0)"><path fill-rule="evenodd" clip-rule="evenodd" d="M10 20C15.5228 20 20 15.5228 20 10C20 4.47715 15.5228 0 10 0C4.47715 0 0 4.47715 0 10C0 15.5228 4.47715 20 10 20ZM10 17C13.866 17 17 13.866 17 10C17 6.13401 13.866 3 10 3C6.13401 3 3 6.13401 3 10C3 13.866 6.13401 17 10 17Z" fill="#b4f6d3"/></g><circle cx="564.17" cy="188.05" r="37.61" fill="#3a48ff"/><g transform="translate(601.78,150.44) scale(3.761) rotate(0)"><rect width="2" height="20" fill="#8af0ba"/><rect x="4" width="2" height="20" fill="#8af0ba"/><rect x="8" width="2" height="20" fill="#8af0ba"/><rect x="12" width="2" height="20" fill="#8af0ba"/><rect x="16" width="2" height="20" fill="#8af0ba"/></g><rect x="752.2222222222223" y="150.44444444444446" width="75.22222222222223" height="75.22222222222223" fill="#ffffff"/><g transform="translate(752.22,150.44) scale(1.8805) rotate(0)"><path fill-rule="evenodd" clip-rule="evenodd" d="M10 20C15.5228 20 20 15.5228 20 10C20 4.47715 15.5228 0 10 0C4.47715 0 0 4.47715 0 10C0 15.5228 4.47715 20 10 20ZM10 17C13.866 17 17 13.866 17 10C17 6.13401 13.866 3 10 3C6.13401 3 3 6.13401 3 10C3 13.866 6.13401 17 10 17Z" fill="#4ae893"/></g><g transform="translate(752.22,188.06) scale(1.8805) rotate(0)"><rect width="2" height="20" fill="#6c76ff"/><rect x="4" width="2" height="20" fill="#6c76ff"/><rect x="8" width="2" height="20" fill="#6c76ff"/><rect x="12" width="2" height="20" fill="#6c76ff"/><rect x="16" width="2" height="20" fill="#6c76ff"/></g><circle cx="808.635" cy="206.865" r="18.805" fill="#3fe78d"/><g transform="translate(827.44,150.44) scale(3.761) rotate(0)"><rect width="2" height="20" fill="#ebedff"/><rect x="4" width="2" height="20" fill="#ebedff"/><rect x="8" width="2" height="20" fill="#ebedff"/><rect x="12" width="2" height="20" fill="#ebedff"/><rect x="16" width="2" height="20" fill="#ebedff"/></g><rect x="1128.3333333333335" y="150.44444444444446" width="75.22222222222223" height="75.22222222222223" fill="#ffffff"/><rect x="225.66666666666669" y="225.66666666666669" width="75.22222222222223" height="75.22222222222223" fill="#ffffff"/><path d="M 225.67 263.28 A 37.61 37.61 0 0 1  263.28 225.67 L 225.67 263.28 A 37.61 37.61 0 0 0 263.28 225.67" fill="#a5abff"/><g transform="translate(263.28,225.67) scale(1.8805) rotate(0)"><rect width="2" height="20" fill="#82efb5"/><rect x="4" width="2" height="20" fill="#82efb5"/><rect x="8" width="2" height="20" fill="#82efb5"/><rect x="12" width="2" height="20" fill="#82efb5"/><rect x="16" width="2" height="20" fill="#82efb5"/></g><path d="M 263.28 263.28 A 37.61 37.61 0 0 1  300.89 300.89 L 263.28 263.28 A 37.61 37.61 0 0 0 300.89 300.89" fill="#47e892"/><g transform="translate(376.11,225.67) scale(3.761) rotate(0)"><path fill-rule="evenodd" clip-rule="evenodd" d="M10 20C15.5228 20 20 15.5228 20 10C20 4.47715 15.5228 0 10 0C4.47715 0 0 4.47715 0 10C0 15.5228 4.47715 20 10 20ZM10 17C13.866 17 17 13.866 17 10C17 6.13401 13.866 3 10 3C6.13401 3 3 6.13401 3 10C3 13.866 6.13401 17 10 17Z" fill="#43e78f"/></g><g transform="translate(1053.11,225.67) scale(3.761) rotate(0)"><path d="M13 0H20V7L7 20H0V13L13 0Z" fill="#4c58ff"/></g><g transform="translate(1128.33,225.67) scale(3.761) rotate(0)"><path d="M13 0H20V7L7 20H0V13L13 0Z" fill="#3a48ff"/></g><g transform="translate(75.22,300.89) scale(3.761) rotate(0)"><path fill-rule="evenodd" clip-rule="evenodd" d="M10 20C15.5228 20 20 15.5228 20 10C20 4.47715 15.5228 0 10 0C4.47715 0 0 4.47715 0 10C0 15.5228 4.47715 20 10 20ZM10 17C13.866 17 17 13.866 17 10C17 6.13401 13.866 3 10 3C6.13401 3 3 6.13401 3 10C3 13.866 6.13401 17 10 17Z" fill="#737dff"/></g><circle cx="188.05" cy="338.5" r="37.61" fill="#eaecff"/><path d="M 376.11 376.11 A 75.22 75.22 0 0 1  451.33000000000004 300.89 L 376.11 376.11 A 75.22 75.22 0 0 0 451.33000000000004 300.89" fill="#77eeae"/><path d="M 902.67 300.89 A 75.22 75.22 0 0 1  977.89 376.11 L 902.67 300.89 A 75.22 75.22 0 0 0 977.89 376.11" fill="#1be278"/><rect x="977.8888888888889" y="300.8888888888889" width="75.22222222222223" height="75.22222222222223" fill="#ffffff"/><g transform="translate(1015.5,300.89) scale(1.8805) rotate(0)"><rect width="2" height="20" fill="#a8aeff"/><rect x="4" width="2" height="20" fill="#a8aeff"/><rect x="8" width="2" height="20" fill="#a8aeff"/><rect x="12" width="2" height="20" fill="#a8aeff"/><rect x="16" width="2" height="20" fill="#a8aeff"/></g><g transform="translate(1015.5,338.5) scale(1.8805) rotate(0)"><path fill-rule="evenodd" clip-rule="evenodd" d="M10 20C15.5228 20 20 15.5228 20 10C20 4.47715 15.5228 0 10 0C4.47715 0 0 4.47715 0 10C0 15.5228 4.47715 20 10 20ZM10 17C13.866 17 17 13.866 17 10C17 6.13401 13.866 3 10 3C6.13401 3 3 6.13401 3 10C3 13.866 6.13401 17 10 17Z" fill="#30e584"/></g><rect x="1053.1111111111113" y="300.8888888888889" width="75.22222222222223" height="75.22222222222223" fill="#ffffff"/><g transform="translate(1128.33,300.89) scale(3.761) rotate(0)"><rect width="2" height="20" fill="#fafaff"/><rect x="4" width="2" height="20" fill="#fafaff"/><rect x="8" width="2" height="20" fill="#fafaff"/><rect x="12" width="2" height="20" fill="#fafaff"/><rect x="16" width="2" height="20" fill="#fafaff"/></g><path d="M 0 376.11 A 75.22 75.22 0 0 1  75.22 451.33000000000004 L 0 376.11 A 75.22 75.22 0 0 0 75.22 451.33000000000004" fill="#a9aeff"/><path d="M 75.22 376.11 A 75.22 75.22 0 0 1  150.44 451.33000000000004 L 75.22 376.11 A 75.22 75.22 0 0 0 150.44 451.33000000000004" fill="#f3fef8"/><rect x="225.66666666666669" y="376.11111111111114" width="75.22222222222223" height="75.22222222222223" fill="#ffffff"/><g transform="translate(263.28,376.11) scale(1.8805) rotate(0)"><rect width="2" height="20" fill="#5bea9e"/><rect x="4" width="2" height="20" fill="#5bea9e"/><rect x="8" width="2" height="20" fill="#5bea9e"/><rect x="12" width="2" height="20" fill="#5bea9e"/><rect x="16" width="2" height="20" fill="#5bea9e"/></g><rect x="376.11111111111114" y="376.11111111111114" width="75.22222222222223" height="75.22222222222223" fill="#ffffff"/><path d="M 376.11 413.72 A 37.61 37.61 0 0 1  413.72 376.11 L 376.11 413.72 A 37.61 37.61 0 0 0 413.72 376.11" fill="#8b93ff"/><rect x="526.5555555555557" y="376.11111111111114" width="75.22222222222223" height="75.22222222222223" fill="#ffffff"/><path d="M 564.17 413.72 A 37.61 37.61 0 0 1  601.78 376.11 L 564.17 413.72 A 37.61 37.61 0 0 0 601.78 376.11" fill="#7cefb1"/><g transform="translate(601.78,376.11) scale(3.761) rotate(0)"><path d="M13 0H20V7L7 20H0V13L13 0Z" fill="#5f6aff"/></g><g transform="translate(677,376.11) scale(3.761) rotate(0)"><rect width="2" height="20" fill="#c9ccff"/><rect x="4" width="2" height="20" fill="#c9ccff"/><rect x="8" width="2" height="20" fill="#c9ccff"/><rect x="12" width="2" height="20" fill="#c9ccff"/><rect x="16" width="2" height="20" fill="#c9ccff"/></g><rect x="752.2222222222223" y="376.11111111111114" width="75.22222222222223" height="75.22222222222223" fill="#ffffff"/><circle cx="808.635" cy="394.915" r="18.805" fill="#dee1ff"/><g transform="translate(977.89,376.11) scale(3.761) rotate(0)"><path d="M13 0H20V7L7 20H0V13L13 0Z" fill="#606bff"/></g><g transform="translate(75.22,451.33) scale(3.761) rotate(0)"><path d="M13 0H20V7L7 20H0V13L13 0Z" fill="#3442ff"/></g><rect x="150.44444444444446" y="451.33333333333337" width="75.22222222222223" height="75.22222222222223" fill="#ffffff"/><path d="M 150.44 488.94 A 37.61 37.61 0 0 1  188.05 526.55 L 150.44 488.94 A 37.61 37.61 0 0 0 188.05 526.55" fill="#b4b9ff"/><rect x="300.8888888888889" y="451.33333333333337" width="75.22222222222223" height="75.22222222222223" fill="#ffffff"/><rect x="526.5555555555557" y="451.33333333333337" width="75.22222222222223" height="75.22222222222223" fill="#ffffff"/><rect x="677" y="451.33333333333337" width="75.22222222222223" height="75.22222222222223" fill="#ffffff"/><g transform="translate(714.61,451.33) scale(1.8805) rotate(0)"><rect width="2" height="20" fill="#5b66ff"/><rect x="4" width="2" height="20" fill="#5b66ff"/><rect x="8" width="2" height="20" fill="#5b66ff"/><rect x="12" width="2" height="20" fill="#5b66ff"/><rect x="16" width="2" height="20" fill="#5b66ff"/></g><path d="M 677 526.55 A 37.61 37.61 0 0 1  714.61 488.94 L 677 526.55 A 37.61 37.61 0 0 0 714.61 488.94" fill="#75eead"/><rect x="752.2222222222223" y="451.33333333333337" width="75.22222222222223" height="75.22222222222223" fill="#ffffff"/><circle cx="808.635" cy="470.135" r="18.805" fill="#7780ff"/><rect x="827.4444444444446" y="451.33333333333337" width="75.22222222222223" height="75.22222222222223" fill="#ffffff"/><circle cx="846.245" cy="470.135" r="18.805" fill="#90f1bd"/><circle cx="940.28" cy="488.94" r="37.61" fill="#b0f5d0"/><g transform="translate(1128.33,451.33) scale(3.761) rotate(0)"><rect width="2" height="20" fill="#3be68b"/><rect x="4" width="2" height="20" fill="#3be68b"/><rect x="8" width="2" height="20" fill="#3be68b"/><rect x="12" width="2" height="20" fill="#3be68b"/><rect x="16" width="2" height="20" fill="#3be68b"/></g><rect x="150.44444444444446" y="526.5555555555557" width="75.22222222222223" height="75.22222222222223" fill="#ffffff"/><g transform="translate(188.06,564.17) scale(1.8805) rotate(0)"><path fill-rule="evenodd" clip-rule="evenodd" d="M10 20C15.5228 20 20 15.5228 20 10C20 4.47715 15.5228 0 10 0C4.47715 0 0 4.47715 0 10C0 15.5228 4.47715 20 10 20ZM10 17C13.866 17 17 13.866 17 10C17 6.13401 13.866 3 10 3C6.13401 3 3 6.13401 3 10C3 13.866 6.13401 17 10 17Z" fill="#9bf2c4"/></g><g transform="translate(300.89,526.56) scale(3.761) rotate(0)"><path d="M13 0H20V7L7 20H0V13L13 0Z" fill="#f0fdf6"/></g><g transform="translate(526.56,526.56) scale(3.761) rotate(0)"><path d="M13 0H20V7L7 20H0V13L13 0Z" fill="#22e37c"/></g><rect x="827.4444444444446" y="526.5555555555557" width="75.22222222222223" height="75.22222222222223" fill="#ffffff"/><g transform="translate(827.44,564.17) scale(1.8805) rotate(0)"><path fill-rule="evenodd" clip-rule="evenodd" d="M10 20C15.5228 20 20 15.5228 20 10C20 4.47715 15.5228 0 10 0C4.47715 0 0 4.47715 0 10C0 15.5228 4.47715 20 10 20ZM10 17C13.866 17 17 13.866 17 10C17 6.13401 13.866 3 10 3C6.13401 3 3 6.13401 3 10C3 13.866 6.13401 17 10 17Z" fill="#88f0b8"/></g><g transform="translate(865.06,564.17) scale(1.8805) rotate(0)"><rect width="2" height="20" fill="#76eeae"/><rect x="4" width="2" height="20" fill="#76eeae"/><rect x="8" width="2" height="20" fill="#76eeae"/><rect x="12" width="2" height="20" fill="#76eeae"/><rect x="16" width="2" height="20" fill="#76eeae"/></g><rect x="75.22222222222223" y="601.7777777777778" width="75.22222222222223" height="75.22222222222223" fill="#ffffff"/><g transform="translate(150.44,601.78) scale(3.761) rotate(0)"><path fill-rule="evenodd" clip-rule="evenodd" d="M10 20C15.5228 20 20 15.5228 20 10C20 4.47715 15.5228 0 10 0C4.47715 0 0 4.47715 0 10C0 15.5228 4.47715 20 10 20ZM10 17C13.866 17 17 13.866 17 10C17 6.13401 13.866 3 10 3C6.13401 3 3 6.13401 3 10C3 13.866 6.13401 17 10 17Z" fill="#f4fef8"/></g><rect x="451.33333333333337" y="601.7777777777778" width="75.22222222222223" height="75.22222222222223" fill="#ffffff"/><path d="M 451.33 677 A 37.61 37.61 0 0 1  488.94 639.39 L 451.33 677 A 37.61 37.61 0 0 0 488.94 639.39" fill="#3341ff"/><g transform="translate(488.94,639.39) scale(1.8805) rotate(0)"><path d="M13 0H20V7L7 20H0V13L13 0Z" fill="#5deb9f"/></g><rect x="1053.1111111111113" y="601.7777777777778" width="75.22222222222223" height="75.22222222222223" fill="#ffffff"/><circle cx="1071.915" cy="620.5849999999999" r="18.805" fill="#5b66ff"/></g></svg>